<svg width="32" height="32" viewBox="0 0 32 32" fill="none" xmlns="http://www.w3.org/2000/svg">
<path d="M3.70221 7.76354L3.70239 7.76325C6.36628 3.53663 11.0296 0.735867 16.3314 0.750054L3.70221 7.76354ZM3.70221 7.76354C3.48705 8.10596 3.72044 8.57562 4.14282 8.57562H6.54486C6.78397 8.57562 7.00983 8.46851 7.16027 8.27958C7.39386 7.99004 7.64422 7.7106 7.90799 7.44472L7.90884 7.44386M3.70221 7.76354L7.90884 7.44386M7.90884 7.44386C9.00056 6.3327 10.2687 5.4584 11.6802 4.85059L11.6802 4.85057M7.90884 7.44386L11.6802 4.85057M11.6802 4.85057C13.1387 4.2222 14.6904 3.90121 16.2931 3.90121C17.8962 3.90121 19.4477 4.21885 20.9056 4.85038L20.9061 4.85059M11.6802 4.85057L20.9061 4.85059M20.9061 4.85059C22.3175 5.4584 23.5857 6.3327 24.6774 7.44386C25.7685 8.5544 26.6222 9.84947 27.2217 11.289C27.8409 12.7789 28.1524 14.3613 28.1524 16C28.1524 17.6383 27.8376 19.2209 27.2216 20.7113C26.6256 22.1503 25.7688 23.4454 24.6774 24.5562C23.5857 25.6674 22.3175 26.5416 20.9061 27.1495L20.906 27.1495M20.9061 4.85059L20.906 27.1495M20.906 27.1495C19.4463 27.7789 17.8777 28.1017 16.2936 28.0988H16.2931M20.906 27.1495L16.2931 28.0988M16.2931 28.0988C14.6904 28.0988 13.1387 27.7779 11.6802 27.1495C10.2713 26.5422 8.9906 25.6617 7.90919 24.5566L7.90911 24.5565M16.2931 28.0988L7.90911 24.5565M7.90911 24.5565C7.64559 24.2874 7.3979 24.0074 7.15917 23.7191C7.00817 23.5304 6.77912 23.4244 6.54486 23.4244H4.14282C3.72666 23.4244 3.47924 23.8897 3.7031 24.2379C6.36352 28.4532 11.0056 31.25 16.2931 31.25C24.5055 31.25 31.1659 24.5034 31.2492 16.156L31.2492 16.156M7.90911 24.5565L31.2492 16.156M31.2492 16.156C31.3325 7.67438 24.6617 0.771368 16.3314 0.750054L31.2492 16.156ZM12.6032 20.3215L12.6033 20.3214L17.451 16.4151C17.4512 16.415 17.4514 16.4148 17.4516 16.4147C17.5138 16.3648 17.5636 16.3016 17.5978 16.2299C17.6321 16.1581 17.6498 16.0795 17.6498 16C17.6498 15.9206 17.6321 15.842 17.5978 15.7701C17.5636 15.6985 17.5138 15.6352 17.4516 15.5854C17.4514 15.5852 17.4512 15.5851 17.451 15.5849L12.6055 11.6804C12.6051 11.6801 12.6047 11.6798 12.6043 11.6794C12.2519 11.3903 11.7522 11.6639 11.7522 12.0931V14.4942H1.27335C0.980079 14.4942 0.75 14.7366 0.75 15.0233V16.9768C0.75 17.2634 0.980078 17.5058 1.27335 17.5058H11.7522V19.907C11.7522 20.3431 12.2561 20.6009 12.6032 20.3215Z" fill="#2F435E" stroke="#2F435E" stroke-width="0.5"/>
</svg>
