<svg width="87" height="89" viewBox="0 0 87 89" fill="none" xmlns="http://www.w3.org/2000/svg">
<path d="M86.9169 54.5724V79.1629C86.9169 81.7717 85.9101 84.2735 84.1179 86.1182C82.3257 87.9628 79.895 88.9991 77.3605 88.9991H10.4656C7.93107 88.9991 5.50036 87.9628 3.70819 86.1182C1.91601 84.2735 0.90918 81.7717 0.90918 79.1629V10.3096C0.90918 7.70086 1.91601 5.19899 3.70819 3.35434C5.50036 1.5097 7.93107 0.473389 10.4656 0.473389H34.3566V10.3096H10.4656V79.1629H77.3605V54.5724H86.9169Z" fill="white"/>
<path d="M86.9168 20.1458H67.804V0.473389H58.2476V20.1458H39.1348V29.982H58.2476V49.6544H67.804V29.982H86.9168" fill="white"/>
</svg>
