<svg width="29" height="29" viewBox="0 0 29 29" fill="none" xmlns="http://www.w3.org/2000/svg">
<path d="M7.33242 6.79233L7.33121 6.79354C7.09058 7.03112 6.86221 7.28079 6.64916 7.53944C6.50674 7.71464 6.29432 7.81251 6.07118 7.81251L3.87431 7.81251C3.4784 7.81251 3.24225 7.37402 3.45451 7.04315L3.45477 7.04274C5.89259 3.2587 10.1452 0.750012 14.9868 0.750012C22.5051 0.750013 28.6104 6.80095 28.6868 14.2975L28.6868 14.2975C28.7632 21.9146 22.648 28.1059 15.0218 28.125C10.168 28.1377 5.8966 25.6264 3.45537 21.8332C3.23454 21.4965 3.48492 21.0625 3.87431 21.0625L6.07118 21.0625C6.28974 21.0625 6.50501 21.1592 6.64796 21.3341C6.86591 21.5919 7.09194 21.8422 7.33233 22.0826C8.32862 23.0758 9.48607 23.8574 10.7746 24.4009L10.7751 24.4011C12.1061 24.9659 13.5228 25.25 14.9868 25.25C16.4505 25.25 17.8674 24.9629 19.199 24.4009L19.199 24.4009C20.4877 23.8574 21.6452 23.0756 22.6416 22.0823C23.6375 21.0894 24.4192 19.9321 24.9628 18.6465L7.33242 6.79233ZM7.33242 6.79233C8.3193 5.80446 9.48827 5.01719 10.7747 4.47408L10.7747 4.47406M7.33242 6.79233L10.7747 4.47406M10.7747 4.47406C12.1074 3.91119 13.5397 3.62243 14.9864 3.62501L14.9868 3.62501M10.7747 4.47406L14.9868 3.62501M14.9868 3.62501C16.4505 3.62501 17.8674 3.91214 19.199 4.47409C20.4854 5.01721 21.6543 5.80447 22.6412 6.79233L22.6416 6.79278M14.9868 3.62501L22.6416 6.79278M22.6416 6.79278C23.6303 7.77728 24.4186 8.94416 24.9629 10.2288L24.9629 10.2289M22.6416 6.79278L24.9629 10.2289M24.9629 10.2289C25.5277 11.56 25.8118 12.9736 25.8118 14.4375M24.9629 10.2289L25.8118 14.4375M25.8118 14.4375C25.8118 15.901 25.5247 17.3148 24.9628 18.6464L25.8118 14.4375ZM0.942104 14.8313L5.37529 18.3303C5.70694 18.5931 6.18681 18.3532 6.18681 17.9375L6.18681 15.8125L15.7493 15.8125C16.0249 15.8125 16.2493 15.5881 16.2493 15.3125L16.2493 13.5625C16.2493 13.2869 16.0249 13.0625 15.7493 13.0625L6.18681 13.0625L6.18681 10.9375C6.18681 10.5234 5.70452 10.2804 5.37473 10.5451C5.37431 10.5455 5.37389 10.5458 5.37347 10.5462L0.942104 14.0438C0.941942 14.0439 0.941779 14.044 0.941617 14.0441C0.882081 14.0909 0.833921 14.1505 0.800771 14.2185C0.767534 14.2867 0.750261 14.3616 0.750261 14.4375C0.750261 14.5134 0.767534 14.5883 0.800771 14.6565C0.833921 14.7245 0.882081 14.7842 0.941617 14.8309C0.941779 14.831 0.941941 14.8311 0.942104 14.8313Z" fill="#2F435E" stroke="#2F435E" stroke-width="0.5"/>
</svg>
