<svg width="111" height="83" viewBox="0 0 111 83" fill="none" xmlns="http://www.w3.org/2000/svg">
<path d="M11.9453 73.9749H87.0474L99.73 41.6558H24.6157L11.9453 73.9749Z" fill="#BDBDBD"/>
<path d="M106.755 32.8241H93.508V18.4825C93.508 16.2479 91.7541 14.4426 89.583 14.4426H50.9465L36.559 0.277742C36.3759 0.101348 36.1351 0.00221306 35.8844 0H4.70526C2.53425 0 0.780273 1.80533 0.780273 4.03989V78.7779C0.780273 81.0125 2.53425 82.8178 4.70526 82.8178H90.319C91.9135 82.8178 93.3608 81.8205 93.9619 80.2929L110.398 38.379C110.582 37.8993 110.68 37.3816 110.68 36.864C110.68 34.6295 108.926 32.8241 106.755 32.8241ZM9.61149 9.08976H32.7321L47.4017 23.5324H84.6768V32.8241H22.1224C20.5279 32.8241 19.0805 33.8215 18.4795 35.3491L9.61149 57.9725V9.08976ZM87.5347 73.7281H12.4326L25.1029 41.4089H100.217L87.5347 73.7281Z" fill="white"/>
</svg>
