<svg width="98" height="100" viewBox="0 0 98 100" fill="none" xmlns="http://www.w3.org/2000/svg">
<path d="M14.9626 14.6405C-4.00707 34.1655 -4.00707 65.8299 14.9626 85.3583C33.9323 104.887 64.6896 104.877 83.6593 85.3517C102.629 65.8266 102.639 34.1688 83.6657 14.6438C64.696 -4.88126 33.9387 -4.88126 14.9626 14.6438V14.6405ZM81.3887 16.9875C83.995 19.705 86.2695 22.7396 88.1618 26.024L75.0215 39.549C73.6384 35.9224 71.5419 32.6291 68.8636 29.876C66.1876 27.1167 62.9857 24.9576 59.4592 23.5345L72.5995 10.0095C75.7957 11.9579 78.7484 14.3013 81.3919 16.9875H81.3887ZM32.0482 67.7725C27.4702 63.0569 24.8981 56.6637 24.8969 49.9974C24.8957 43.3311 27.4655 36.937 32.0418 32.2196C36.6257 27.5118 42.8369 24.8678 49.3126 24.8678C55.7882 24.8678 61.9994 27.5118 66.5833 32.2196C71.154 36.939 73.7205 43.3308 73.7205 49.9944C73.7205 56.658 71.154 63.0499 66.5833 67.7692C62.0012 72.4785 55.7909 75.1242 49.3155 75.1254C42.8401 75.1267 36.6288 72.4834 32.045 67.7758L32.0482 67.7725ZM17.2364 83.0146C14.6276 80.2928 12.351 77.2538 10.4569 73.9648L23.5972 60.4398C24.9873 64.0643 27.0858 67.3562 29.7628 70.1115C32.4398 72.8669 35.6381 75.0269 39.1594 76.4576L26.0127 89.9826C22.8887 88.06 19.9257 85.7727 17.2332 83.0113L17.2364 83.0146ZM26.0224 9.99954L39.1691 23.5312C35.6456 24.9572 32.4453 27.1152 29.7678 29.8705C27.0904 32.6258 24.9931 35.9193 23.6069 39.5457L10.4601 26.0207C12.3281 22.8052 14.5504 19.7554 17.2396 16.9775C19.8824 14.2933 22.8327 11.9501 26.0256 9.99954H26.0224ZM72.606 89.9826L59.4592 76.451C62.9833 75.0269 66.1842 72.87 68.8618 70.1151C71.5395 67.3602 73.6364 64.0665 75.0215 60.4398L88.1682 73.9648C86.3002 77.1803 84.078 80.2367 81.3887 83.0146C78.7458 85.6968 75.7955 88.0378 72.6028 89.9859L72.606 89.9826Z" fill="white"/>
</svg>
