<svg width="49" height="85" viewBox="0 0 49 85" fill="none" xmlns="http://www.w3.org/2000/svg">
<path d="M24.2699 0C18.8292 0 14.0686 4.95833 14.0686 10.625C14.0686 16.2917 18.8292 21.25 24.2699 21.25C29.7106 21.25 34.4713 16.2917 34.4713 10.625C34.4713 4.95833 29.7106 0 24.2699 0ZM0.466797 28.3333V35.4167C0.466797 35.4167 14.0686 35.4167 14.0686 49.5833V63.75C14.0686 77.9167 0.466797 77.9167 0.466797 77.9167V85H48.073V77.9167C48.073 77.9167 34.4713 77.9167 34.4713 63.75V35.4167C34.4713 31.875 31.0708 28.3333 27.6704 28.3333H0.466797Z" fill="white"/>
</svg>
