<svg width="30" height="29" viewBox="0 0 30 29" fill="none" xmlns="http://www.w3.org/2000/svg">
<path d="M29.983 22.8863C29.9114 22.4587 29.6342 22.0932 29.2189 21.876L23.0753 18.376L23.0247 18.3486C22.7671 18.2239 22.4826 18.16 22.1946 18.1621C21.6799 18.1621 21.1883 18.3507 20.8471 18.6814L19.0338 20.4355C18.9563 20.5068 18.7034 20.61 18.6267 20.6137C18.6057 20.6121 16.5168 20.4666 12.6713 16.7478C8.83253 13.0368 8.66967 11.0107 8.66838 11.0107C8.67053 10.9071 8.77595 10.6635 8.85095 10.588L10.3972 9.09328C10.942 8.56533 11.1052 7.69011 10.7821 7.01214L7.36724 0.798972C7.11909 0.305002 6.63695 0 6.10209 0C5.72366 0 5.35852 0.151672 5.07309 0.427251L0.858074 4.49381C0.45393 4.88252 0.105929 5.56214 0.0300714 6.10916C-0.00678586 6.37065 -0.754645 12.6124 8.09538 21.1711C15.6087 28.4352 21.4673 28.9996 23.0851 28.9996C23.2822 29.0021 23.4791 28.9923 23.6749 28.9702C24.2389 28.8973 24.9409 28.5616 25.3424 28.1725L29.554 24.1005C29.8977 23.7665 30.0546 23.3252 29.983 22.8863Z" fill="#2F435E"/>
</svg>
