<svg width="112" height="112" viewBox="0 0 112 112" fill="none" xmlns="http://www.w3.org/2000/svg">
<path d="M104.367 0.000732422H6.83876C5.94216 0.000732404 5.05434 0.223851 4.226 0.657345C3.39767 1.09084 2.64504 1.72622 2.0111 2.52719C1.37716 3.32817 0.874336 4.27906 0.531331 5.32555C0.188327 6.37205 0.0118652 7.49365 0.012024 8.6263V83.7918C0.0118652 84.9244 0.188327 86.046 0.531331 87.0925C0.874336 88.139 1.37716 89.0899 2.0111 89.8909C2.64504 90.6918 3.39767 91.3272 4.226 91.7607C5.05434 92.1942 5.94216 92.4173 6.83876 92.4173H50.7853V98.9541V105.491H32.1874C31.1085 105.491 30.2364 106.593 30.2364 107.954V110.474C31.3671 111.079 31.053 111.079 32.1319 111.079H55.0536H77.9753C79.053 111.079 79.5469 110.534 79.9818 110.084V107.954C79.9818 106.591 79.1085 105.491 78.0308 105.491H59.6799V98.9541V95.6857V92.4173H104.367C105.263 92.4177 106.151 92.1949 106.98 91.7616C107.808 91.3282 108.561 90.6929 109.195 89.8918C109.829 89.0908 110.332 88.1398 110.675 87.0931C111.018 86.0464 111.195 84.9246 111.194 83.7918V8.6263C111.194 6.33866 110.475 4.14471 109.195 2.5271C107.914 0.909495 106.177 0.000732422 104.367 0.000732422ZM4.61511 87.0925C4.61511 62.8901 4.61511 29.528 4.61511 5.32555H106.59V87.0925H4.61511Z" fill="white"/>
<path d="M46.824 65.2126L33.3254 51.788C32.3924 50.8602 32.3924 49.3598 33.3254 48.4418L35.5685 46.2109C36.5015 45.2831 38.0102 45.2831 38.9333 46.2109L48.5014 55.7266L62.2305 43.0219L75.9597 30.3172C76.8926 29.3894 78.4013 29.3894 79.3244 30.3172L81.5874 32.5382C82.5204 33.4661 82.5204 34.9665 81.5874 35.8845L50.1987 65.2027C49.2657 66.1404 47.757 66.1404 46.824 65.2126Z" fill="white"/>
</svg>
