<svg width="106" height="76" viewBox="0 0 106 76" fill="none" xmlns="http://www.w3.org/2000/svg">
<path d="M104.025 42.0994C101.854 40.1321 98.4678 40.2608 96.186 42.0994L79.1828 55.6865C77.1034 57.3596 74.5087 58.2605 71.8221 58.2605H50.0528C48.4334 58.2605 47.1085 56.9367 47.1085 55.3188C47.1085 53.7008 48.4334 52.377 50.0528 52.377H64.4614C67.3872 52.377 70.1107 50.373 70.5892 47.4864C71.1964 43.8092 68.3625 40.6101 64.7742 40.6101H35.3314C30.3629 40.6101 25.56 42.32 21.6957 45.4456L13.1389 52.377H2.94428C1.32493 52.377 0 53.7008 0 55.3188V72.9692C0 74.5871 1.32493 75.9109 2.94428 75.9109H68.6018C71.27 75.9109 73.8647 75.01 75.9625 73.3369L103.786 51.09C106.583 48.8653 106.804 44.5998 104.025 42.0994Z" fill="white"/>
<path d="M99.1683 31.5441L85.4744 31.5441L85.4744 24.1221L75.7859 33.7844L66.1146 24.1221L75.7859 14.4426L68.357 14.4426L68.357 0.761354L82.0509 0.761355L82.0509 14.4426L75.7859 14.4426L85.4744 24.1221L85.4744 17.8629L99.1683 17.8629L99.1683 31.5441ZM99.1683 14.4426L85.4744 14.4426L85.4744 0.761355L99.1683 0.761356L99.1683 14.4426Z" fill="white"/>
</svg>
