<svg width="111" height="76" viewBox="0 0 111 76" fill="none" xmlns="http://www.w3.org/2000/svg">
<path d="M55.5 0C41.2088 0 29.97 10.8127 28.3987 24.6136C25.3761 25.0987 22.5415 26.3886 20.1949 28.3467C17.8482 30.3049 16.0769 32.8585 15.0682 35.7373C6.53512 38.1865 0 45.7658 0 55.2727C0 66.7556 9.28238 76 20.8125 76H90.1875C101.718 76 111 66.7556 111 55.2727C111 49.1927 108.034 43.7484 103.736 39.9415C102.932 27.8022 93.2088 18.1156 80.9745 17.4869C76.7981 7.36855 67.2174 0 55.5 0ZM55.5 6.90909C65.0807 6.90909 72.7397 13.0236 75.4453 21.6945L76.2084 24.1818H79.7812C89.3377 24.1818 97.125 31.9373 97.125 41.4545V43.1818L98.5333 44.2631C100.233 45.5604 101.614 47.2258 102.572 49.1332C103.53 51.0407 104.04 53.1401 104.062 55.2727C104.062 63.1353 98.0824 69.0909 90.1875 69.0909H20.8125C12.9176 69.0909 6.9375 63.1353 6.9375 55.2727C6.9375 48.2945 11.9672 42.8778 18.315 41.7793L20.594 41.3475L21.0276 39.0744C22.0682 34.4211 26.2099 31.0909 31.2188 31.0909H34.6875V27.6364C34.6875 15.9945 43.8103 6.90909 55.5 6.90909ZM55.5 26.2338L53.0025 28.6071L39.1275 42.4253L44.1225 47.3998L52.0312 39.5096V62.1818H58.9688V39.5096L66.8775 47.3929L71.8725 42.4184L57.9975 28.6002L55.5 26.2304V26.2338Z" fill="white"/>
</svg>
