<svg width="90" height="98" viewBox="0 0 90 98" fill="none" xmlns="http://www.w3.org/2000/svg">
<path d="M64.2265 63.9859C67.0892 62.4495 70.366 61.5749 73.8557 61.5749H73.8675C74.2224 61.5749 74.3881 61.1494 74.1278 60.9131C70.4987 57.6591 66.353 55.0311 61.8606 53.1364C61.8132 53.1128 61.7659 53.101 61.7186 53.0773C69.0648 47.7471 73.8439 39.0841 73.8439 29.3101C73.8439 13.1186 60.7368 0 44.5658 0C28.3948 0 15.2995 13.1186 15.2995 29.3101C15.2995 39.0841 20.0786 47.7471 27.4366 53.0773C27.3893 53.101 27.342 53.1128 27.2946 53.1364C22.0068 55.3701 17.2632 58.573 13.182 62.6622C9.12438 66.7087 5.89398 71.5057 3.67105 76.7854C1.48392 81.9556 0.303554 87.495 0.193167 93.1069C0.19001 93.2331 0.212155 93.3586 0.258298 93.476C0.304442 93.5935 0.37365 93.7005 0.461844 93.7908C0.550039 93.8811 0.655435 93.9529 0.771823 94.0019C0.888211 94.0509 1.01324 94.0761 1.13953 94.076H8.22542C8.7341 94.076 9.15996 93.6624 9.17179 93.1542C9.40838 84.0302 13.0637 75.4854 19.5345 69.0088C26.2182 62.3077 35.114 58.6203 44.5776 58.6203C51.285 58.6203 57.7202 60.4758 63.2683 63.9504C63.4108 64.0399 63.5744 64.0903 63.7426 64.0965C63.9108 64.1027 64.0777 64.0646 64.2265 63.9859ZM44.5776 49.6381C39.1597 49.6381 34.0611 47.5226 30.2165 43.6815C28.3249 41.7966 26.8253 39.5563 25.8041 37.0898C24.7829 34.6233 24.2603 31.9793 24.2663 29.3101C24.2663 23.8854 26.3838 18.7798 30.2165 14.9387C34.0493 11.0977 39.1478 8.98213 44.5776 8.98213C50.0074 8.98213 55.0941 11.0977 58.9387 14.9387C60.8303 16.8237 62.3299 19.0639 63.3511 21.5304C64.3723 23.9969 64.895 26.6409 64.8889 29.3101C64.8889 34.7349 62.7714 39.8405 58.9387 43.6815C55.0941 47.5226 49.9955 49.6381 44.5776 49.6381Z" fill="white"/>
<path d="M50.4597 96.9061L35.7528 82.2799C34.7363 81.269 34.7363 79.6343 35.7528 78.6341L38.1967 76.2036C39.2132 75.1926 40.857 75.1926 41.8627 76.2036L52.2872 86.571L67.2453 72.729L82.2033 58.8871C83.2198 57.8762 84.8635 57.8762 85.8692 58.8871L88.3348 61.3069C89.3513 62.3178 89.3513 63.9525 88.3348 64.9527L54.1364 96.8953C53.1199 97.917 51.4762 97.917 50.4597 96.9061Z" fill="white"/>
</svg>
