<svg width="137" height="111" viewBox="0 0 137 111" fill="none" xmlns="http://www.w3.org/2000/svg">
<path d="M132.595 92.5H17.1351V4.625C17.1351 2.06969 15.2214 0 12.8588 0H4.30618C1.94353 0 0.029892 2.06969 0.029892 4.625V101.75C0.029892 106.858 3.85984 111 8.58247 111H132.595C134.958 111 136.871 108.93 136.871 106.375V97.125C136.871 94.5697 134.958 92.5 132.595 92.5ZM124.042 9.25H92.4886C86.7744 9.25 83.912 16.7223 87.9531 21.0929L96.6126 30.4585L77.0031 51.6699L57.3937 30.4614C54.0528 26.8481 48.638 26.8481 45.2998 30.4614L26.9411 50.3171C25.2707 52.1238 25.2707 55.052 26.9411 56.8586L32.9867 63.3972C34.6572 65.2038 37.3646 65.2038 39.035 63.3972L51.3454 50.0801L70.9548 71.2886C74.2957 74.9019 79.7105 74.9019 83.0487 71.2886L108.706 43.5386L117.366 52.9042C121.407 57.2748 128.316 54.179 128.316 47.9988V13.875C128.319 11.3197 126.405 9.25 124.042 9.25Z" fill="white"/>
</svg>
