<svg width="32" height="31" viewBox="0 0 32 31" fill="none" xmlns="http://www.w3.org/2000/svg">
<path d="M28.8 27.8477V10.7179L16 3.15236L3.2 10.7179V27.8477H9.6V23.5132C9.6 21.8411 10.2743 20.2375 11.4745 19.0552C12.6747 17.8728 14.3026 17.2086 16 17.2086C17.6974 17.2086 19.3253 17.8728 20.5255 19.0552C21.7257 20.2375 22.4 21.8411 22.4 23.5132V27.8477H28.8ZM19.2 31V23.5132C19.2 22.6772 18.8629 21.8754 18.2627 21.2842C17.6626 20.693 16.8487 20.3609 16 20.3609C15.1513 20.3609 14.3374 20.693 13.7373 21.2842C13.1371 21.8754 12.8 22.6772 12.8 23.5132V31H3.2C2.35131 31 1.53737 30.6679 0.937258 30.0767C0.337142 29.4855 1.48144e-10 28.6837 1.48143e-10 27.8477V10.7179C-5.31639e-06 10.1736 0.143089 9.63849 0.415349 9.16478C0.687609 8.69107 1.07975 8.29489 1.5536 8.01482L14.3536 0.449237C14.8509 0.15528 15.42 0 16 0C16.58 0 17.1491 0.15528 17.6464 0.449237L30.4464 8.01482C30.9202 8.29489 31.3124 8.69107 31.5847 9.16478C31.8569 9.63849 32 10.1736 32 10.7179V27.8477C32 28.6837 31.6629 29.4855 31.0627 30.0767C30.4626 30.6679 29.6487 31 28.8 31H19.2Z" fill="#2F435E"/>
</svg>
