<svg width="26" height="28" viewBox="0 0 26 28" fill="none" xmlns="http://www.w3.org/2000/svg">
<path d="M21.6649 18.14C22.784 19.2811 23.6753 20.6337 24.2894 22.1225C24.8951 23.5854 25.2173 25.135 25.2499 26.727C25.2514 26.7941 25.2398 26.861 25.2158 26.9237L24.9823 26.8342L25.2158 26.9237C25.1916 26.9867 25.1552 27.0446 25.1084 27.0937C25.0616 27.1428 25.0053 27.1821 24.9428 27.2091C24.8802 27.236 24.8128 27.25 24.7446 27.25C24.7446 27.25 24.7446 27.25 24.7445 27.25H22.8297C22.5491 27.25 22.3308 27.0261 22.3245 26.7512M21.6649 18.14L1.00008 26.7322C0.999228 26.767 1.0052 26.8017 1.01765 26.8342C1.0301 26.8666 1.04877 26.8962 1.07257 26.9212L0.891607 27.0937C0.891609 27.0937 0.891611 27.0937 0.891614 27.0937C0.93841 27.1428 0.994659 27.1821 1.05721 27.2091C1.11977 27.236 1.18717 27.25 1.2554 27.25C1.25542 27.25 1.25544 27.25 1.25547 27.25H3.17028C3.4529 27.25 3.66906 27.0209 3.67552 26.7516C3.73777 24.2922 4.70226 21.9911 6.40652 20.2468C8.16968 18.4423 10.5087 17.451 13 17.451C15.4913 17.451 17.8303 18.4423 19.5935 20.2468C21.2977 21.991 22.2621 24.292 22.3245 26.7512M21.6649 18.14C20.6374 17.0864 19.4351 16.2291 18.1149 15.6078C19.9759 14.0781 21.1648 11.7296 21.1648 9.1005C21.1648 4.49305 17.5158 0.75 13 0.75C8.48418 0.75 4.83516 4.49305 4.83516 9.1005C4.83516 11.7297 6.02422 14.0782 7.88515 15.6105C6.56251 16.2308 5.36959 17.0815 4.33482 18.1436C3.21689 19.2855 2.32584 20.6378 1.71059 22.1257L21.6649 18.14ZM22.3245 26.7512C22.3245 26.751 22.3245 26.7509 22.3245 26.7508L22.5744 26.7452M22.3245 26.7512C22.3245 26.7513 22.3245 26.7514 22.3245 26.7516L22.5744 26.7452M22.5744 26.7452C22.5776 26.8889 22.6893 27 22.8297 27H24.7446C24.7787 27 24.8124 26.993 24.8438 26.9795L22.5744 26.7452ZM1.71053 22.1258C1.10606 23.5828 0.780097 25.1446 0.750136 26.7268L1.71053 22.1258ZM13 14.4686C11.6034 14.4686 10.2889 13.9118 9.29799 12.8976C8.30693 11.8833 7.76067 10.5352 7.76067 9.1005C7.76067 7.66578 8.30693 6.31766 9.29799 5.30336C10.2889 4.28925 11.6034 3.73241 13 3.73241C14.3966 3.73241 15.7111 4.28925 16.702 5.30336C17.6931 6.31766 18.2393 7.66578 18.2393 9.1005C18.2393 10.5352 17.6931 11.8833 16.702 12.8976C15.7111 13.9118 14.3966 14.4686 13 14.4686Z" fill="#2F435E" stroke="#2F435E" stroke-width="0.5"/>
</svg>
