<svg width="44" height="36" viewBox="0 0 44 36" fill="none" xmlns="http://www.w3.org/2000/svg">
<path d="M44 13.5258V30.3814C44 31.8716 43.268 33.3007 41.9652 34.3544C40.6623 35.408 38.8952 36 37.0526 36H6.94737C5.10481 36 3.33772 35.408 2.03484 34.3544C0.731953 33.3007 0 31.8716 0 30.3814V13.5258C0 11.4469 1.39642 9.63022 3.47368 8.66008L3.46674 8.65259L21.9954 0L40.5379 8.6582L40.5356 8.66382C41.5894 9.15743 42.4643 9.86647 43.0723 10.7198C43.6804 11.5732 44.0003 12.5408 44 13.5258ZM3.97621 10.6528L22 20.1182L40.0238 10.6528L21.9954 2.16315L3.97621 10.6528ZM22 22.3506L2.62611 12.1773C2.42066 12.6074 2.31545 13.0646 2.31579 13.5258V30.3814C2.31579 31.3749 2.80376 32.3276 3.67235 33.0301C4.54094 33.7325 5.719 34.1271 6.94737 34.1271H37.0526C38.281 34.1271 39.4591 33.7325 40.3277 33.0301C41.1962 32.3276 41.6842 31.3749 41.6842 30.3814V13.5258C41.6842 13.05 41.5754 12.5949 41.3739 12.1773L22 22.3488V22.3506Z" fill="white"/>
</svg>
