<svg width="25" height="44" viewBox="0 0 25 44" fill="none" xmlns="http://www.w3.org/2000/svg">
<path d="M20.833 0H4.1663C3.41399 0 2.71954 0.186198 2.08297 0.558594C1.44639 0.93099 0.940027 1.43229 0.56387 2.0625C0.187712 2.69271 -0.000366211 3.38021 -0.000366211 4.125V39.875C-0.000366211 41.0208 0.404726 41.9948 1.21491 42.7969C2.0251 43.599 3.00889 44 4.1663 44H20.833C21.9904 44 22.9742 43.599 23.7844 42.7969C24.5945 41.9948 24.9996 41.0208 24.9996 39.875V4.125C24.9996 3.38021 24.8116 2.69271 24.4354 2.0625C24.0592 1.43229 23.5529 0.93099 22.9163 0.558594C22.2797 0.186198 21.5853 0 20.833 0ZM22.2219 39.875C22.2219 40.2474 22.0844 40.5697 21.8095 40.8418C21.5346 41.1139 21.2091 41.25 20.833 41.25H4.1663C3.79014 41.25 3.46462 41.1139 3.18974 40.8418C2.91485 40.5697 2.77741 40.2474 2.77741 39.875V4.125C2.77741 3.7526 2.91485 3.43034 3.18974 3.1582C3.46462 2.88607 3.79014 2.75 4.1663 2.75H20.833C21.2091 2.75 21.5346 2.88607 21.8095 3.1582C22.0844 3.43034 22.2219 3.7526 22.2219 4.125V39.875ZM12.5213 34.375C11.7546 34.375 11.0963 34.6471 10.5465 35.1914C9.99674 35.7357 9.72186 36.3802 9.72186 37.125C9.72186 37.612 9.84483 38.0703 10.0908 38.5C10.3367 38.9297 10.6767 39.2663 11.1107 39.5098C11.5448 39.7533 12.0077 39.875 12.4996 39.875C12.9915 39.875 13.4545 39.7533 13.8885 39.5098C14.3225 39.2663 14.6625 38.9297 14.9085 38.5C15.1544 38.0703 15.2774 37.612 15.2774 37.125C15.2774 36.3802 15.0098 35.7357 14.4745 35.1914C13.9392 34.6471 13.2881 34.375 12.5213 34.375ZM15.2774 4.125H9.72186C9.3457 4.125 9.02018 4.26107 8.74529 4.5332C8.47041 4.80534 8.33297 5.1276 8.33297 5.5C8.33297 5.8724 8.47041 6.19466 8.74529 6.4668C9.02018 6.73893 9.3457 6.875 9.72186 6.875H15.2774C15.6536 6.875 15.9791 6.73893 16.254 6.4668C16.5289 6.19466 16.6663 5.8724 16.6663 5.5C16.6663 5.1276 16.5289 4.80534 16.254 4.5332C15.9791 4.26107 15.6536 4.125 15.2774 4.125Z" fill="white"/>
</svg>
